<?xml version="1.0" encoding="UTF-8" standalone="no"?>
<!-- Created with Inkscape (http://www.inkscape.org/) -->

<svg
   xmlns:dc="http://purl.org/dc/elements/1.1/"
   xmlns:cc="http://creativecommons.org/ns#"
   xmlns:rdf="http://www.w3.org/1999/02/22-rdf-syntax-ns#"
   xmlns:svg="http://www.w3.org/2000/svg"
   xmlns="http://www.w3.org/2000/svg"
   xmlns:sodipodi="http://sodipodi.sourceforge.net/DTD/sodipodi-0.dtd"
   xmlns:inkscape="http://www.inkscape.org/namespaces/inkscape"
   width="30"
   height="30"
   id="svg2"
   version="1.1"
   inkscape:version="0.48.2 r9819"
   sodipodi:docname="New document 1">
  <defs
     id="defs4" />
  <sodipodi:namedview
     id="base"
     pagecolor="#ffffff"
     bordercolor="#666666"
     borderopacity="1.0"
     inkscape:pageopacity="0.0"
     inkscape:pageshadow="2"
     inkscape:zoom="0.98994949"
     inkscape:cx="288.38004"
     inkscape:cy="-1.5747763"
     inkscape:document-units="px"
     inkscape:current-layer="layer1"
     showgrid="false"
     inkscape:window-width="1440"
     inkscape:window-height="784"
     inkscape:window-x="0"
     inkscape:window-y="0"
     inkscape:window-maximized="1" />
  <metadata
     id="metadata7">
    <rdf:RDF>
      <cc:Work
         rdf:about="">
        <dc:format>image/svg+xml</dc:format>
        <dc:type
           rdf:resource="http://purl.org/dc/dcmitype/StillImage" />
        <dc:title></dc:title>
      </cc:Work>
    </rdf:RDF>
  </metadata>
  <g
     inkscape:label="Layer 1"
     inkscape:groupmode="layer"
     id="layer1"
     transform="translate(0,-1022.3622)">
    <rect
       style="fill:none;stroke:#000000;stroke-opacity:1"
       id="rect2985"
       width="19.192902"
       height="18.561586"
       x="5.9346466"
       y="1033.2955"
       ry="1.9571706" />
    <path
       style="fill:none;stroke:#000000;stroke-opacity:1;fill-opacity:1"
       d="M 9.78125 2.59375 C 8.6969775 2.59375 7.84375 3.4782275 7.84375 4.5625 L 7.84375 5.5 L 5.625 5.5 C 4.5407275 5.5 3.65625 6.3844775 3.65625 7.46875 L 3.65625 8.96875 C 3.65625 10.053023 4.5407275 10.9375 5.625 10.9375 L 25.4375 10.9375 C 26.521773 10.9375 27.40625 10.053023 27.40625 8.96875 L 27.40625 7.46875 C 27.40625 6.3844775 26.521773 5.5 25.4375 5.5 L 23.21875 5.5 L 23.21875 4.5625 C 23.21875 3.4782275 22.365523 2.59375 21.28125 2.59375 L 9.78125 2.59375 z "
       transform="translate(0,1022.3622)"
       id="rect2987" />
    <rect
       ry="1.9571706"
       y="1033.2955"
       x="9.0320835"
       height="18.561586"
       width="12.998028"
       id="rect3779"
       style="fill:none;stroke:#000000;stroke-width:0.82294041;stroke-opacity:1" />
    <rect
       ry="1.9571706"
       y="1033.2955"
       x="12.847287"
       height="18.561586"
       width="5.3676195"
       id="rect3783"
       style="fill:none;stroke:#000000;stroke-width:0.52883536;stroke-opacity:1" />
  </g>
</svg>
